<svg width="144" height="31" viewBox="0 0 144 31" fill="none" xmlns="http://www.w3.org/2000/svg">
<path d="M12.8864 16.2695C12.7123 16.2695 12.535 16.2918 12.3569 16.3376L1.73696 19.1066C1.00046 19.2968 0.920205 20.0096 0.949232 20.245C0.98294 20.5099 1.16573 21.1324 2.1335 21.1324C6.85981 21.1324 10.2906 24.6074 10.2906 29.3955C10.2906 30.0632 10.8429 30.2419 11.0803 30.287C11.3264 30.3349 11.9125 30.3699 12.2207 29.7408L14.8273 18.8362C15.0088 18.091 14.8098 17.3701 14.2845 16.8522C13.8973 16.4705 13.4057 16.2695 12.8864 16.2695Z" fill="#0077B6"/>
<path d="M15.408 0.00029507C6.8577 0.0528639 -0.0510142 7.02525 0.000283832 15.5985C0.000283832 15.6356 0.0366676 15.6633 0.073118 15.6538C0.311818 15.5918 0.537744 15.5324 0.792696 15.467L11.4127 12.6981C13.4069 12.1835 15.4659 12.7358 16.9247 14.1743C18.3929 15.6215 18.9756 17.6938 18.4833 19.7176L15.8511 30.7274C15.8187 30.869 15.9293 31.0053 16.075 30.9998C24.3817 30.7092 31.0099 23.8812 31.0099 15.5041C31.0099 6.92607 23.9865 -0.0522737 15.408 0.00029507Z" fill="#0077B6"/>
<path d="M43.6447 21.7615C42.5867 21.7615 41.6467 21.6006 40.823 21.2772C40.0008 20.9396 39.302 20.4839 38.7283 19.9102C38.1708 19.3366 37.7437 18.6826 37.4507 17.9482C37.1576 17.1994 37.0093 16.4131 37.0093 15.5893V15.0818C37.0093 14.2437 37.1558 13.4503 37.4507 12.7017C37.7598 11.9368 38.1995 11.2685 38.773 10.6966C39.361 10.1231 40.0669 9.67628 40.8891 9.35285C41.711 9.01506 42.6296 8.84528 43.6447 8.84528C44.6597 8.84528 45.614 9.01506 46.4218 9.35285C47.2438 9.67628 47.9426 10.1248 48.5162 10.6966C49.0899 11.2702 49.5296 11.9385 49.8387 12.7017C50.1479 13.4503 50.3016 14.2437 50.3016 15.0818V15.5893C50.3016 16.4113 50.155 17.1977 49.8601 17.9482C49.567 18.6826 49.1328 19.3366 48.5591 19.9102C48.0016 20.4839 47.31 20.9396 46.4879 21.2772C45.6658 21.6006 44.7169 21.7615 43.6447 21.7615ZM43.6447 18.7863C44.3345 18.7863 44.9081 18.6397 45.3638 18.3448C45.8196 18.0517 46.1645 17.6389 46.4004 17.1101C46.6506 16.5811 46.7755 15.9932 46.7755 15.3464C46.7755 14.6566 46.6506 14.0525 46.4004 13.5398C46.1501 13.0107 45.7909 12.5927 45.3209 12.2834C44.8652 11.9743 44.3077 11.8207 43.6465 11.8207C42.9853 11.8207 42.4419 11.9743 41.9719 12.2834C41.5019 12.5927 41.1409 13.0107 40.8926 13.5398C40.6567 14.0542 40.5405 14.6566 40.5405 15.3464C40.5405 15.9932 40.6585 16.5811 40.8926 17.1101C41.1285 17.6389 41.4805 18.0499 41.9504 18.3448C42.4204 18.6379 42.987 18.7863 43.6483 18.7863H43.6447Z" fill="black"/>
<path d="M54.3064 25.75C53.3324 25.75 52.5425 24.9603 52.5425 23.9863V10.6628C52.5425 9.88901 53.1699 9.26359 53.9418 9.26359C54.7138 9.26359 55.341 9.89078 55.341 10.6628V14.2921C55.341 14.3974 55.2517 14.4814 55.148 14.4743C55.0481 14.469 54.9712 14.3832 54.9782 14.2831C55.0534 13.1574 55.2981 12.203 55.7182 11.4222C56.1596 10.5841 56.7547 9.96044 57.5035 9.54945C58.2523 9.12412 59.0975 8.90967 60.0394 8.90967C60.8775 8.90967 61.6333 9.06332 62.3089 9.37258C62.9987 9.68165 63.5867 10.1141 64.0728 10.6734C64.5731 11.2166 64.9467 11.8636 65.1968 12.6122C65.4614 13.3468 65.5936 14.1544 65.5936 15.0372V15.5448C65.5936 16.4114 65.4685 17.228 65.2182 17.9911C64.9682 18.7397 64.6017 19.3939 64.1157 19.9532C63.6457 20.5107 63.0648 20.952 62.375 21.2755C61.6995 21.5847 60.9204 21.7384 60.0394 21.7384C59.1582 21.7384 58.3058 21.5542 57.5696 21.1879C56.8494 20.8055 56.2686 20.2337 55.8289 19.4688C55.5859 19.04 55.4036 18.5467 55.2804 17.9929C55.1838 17.5532 55.7164 17.3531 55.9826 17.7177C56.0398 17.7962 56.0721 17.891 56.0721 17.9874V23.9863C56.0721 24.9603 55.2822 25.75 54.3082 25.75H54.3064ZM59.0457 18.7844C59.6479 18.7844 60.1698 18.638 60.6111 18.3431C61.0669 18.05 61.4189 17.6372 61.6691 17.1082C61.9194 16.5794 62.0445 15.9701 62.0445 15.2784C62.0445 14.5869 61.9194 13.9846 61.6691 13.4718C61.4189 12.9571 61.074 12.5605 60.6326 12.2817C60.1913 11.9886 59.6623 11.8402 59.0457 11.8402C58.5167 11.8402 58.0164 11.9654 57.5464 12.2156C57.0764 12.4658 56.6939 12.8249 56.4008 13.2949C56.122 13.7505 55.9826 14.3081 55.9826 14.9693V15.7842C55.9826 16.4167 56.1291 16.9601 56.424 17.4157C56.7333 17.857 57.1228 18.1948 57.5928 18.4289C58.0628 18.6648 58.5472 18.7809 59.0475 18.7809L59.0457 18.7844Z" fill="black"/>
<path d="M73.3099 21.4972C72.0912 21.4972 71.1065 21.3506 70.356 21.0557C69.6072 20.7466 69.055 20.2408 68.703 19.5351C68.3652 18.8149 68.1954 17.8446 68.1954 16.6258V7.64465C68.1954 6.7385 68.9316 6.00232 69.8378 6.00232C70.7437 6.00232 71.4801 6.73673 71.4801 7.64465V16.758C71.4801 17.3317 71.6267 17.7714 71.9214 18.0805C72.2306 18.3736 72.6631 18.5217 73.2224 18.5217H73.519C74.3412 18.5217 75.0077 19.1883 75.0077 20.0104C75.0077 20.8324 74.3412 21.4989 73.519 21.4989H73.3099V21.4972ZM67.6556 11.844C66.9426 11.844 66.3672 11.2667 66.3672 10.5538C66.3672 9.84081 66.9444 9.26359 67.6556 9.26359H73.7175C74.4305 9.26359 75.006 9.84081 75.006 10.5538C75.006 11.2667 74.4287 11.844 73.7175 11.844H67.6556Z" fill="black"/>
<path d="M82.9997 21.7615C81.9418 21.7615 81.0018 21.6006 80.1779 21.2772C79.354 20.9396 78.6572 20.4839 78.0835 19.9102C77.526 19.3366 77.0988 18.6826 76.8057 17.9482C76.5126 17.1994 76.3643 16.4131 76.3643 15.5893V15.0818C76.3643 14.2437 76.5108 13.4503 76.8057 12.7017C77.1148 11.9368 77.5545 11.2685 78.1282 10.6966C78.716 10.1231 79.4221 9.67628 80.244 9.35285C81.068 9.01506 81.9847 8.84528 82.9997 8.84528C84.0148 8.84528 84.969 9.01506 85.7768 9.35285C86.6007 9.67628 87.2977 10.1248 87.8712 10.6966C88.4449 11.2685 88.8846 11.9385 89.1937 12.7017C89.5029 13.4503 89.6566 14.2437 89.6566 15.0818V15.5893C89.6566 16.4113 89.51 17.1977 89.2151 17.9482C88.9221 18.6826 88.4878 19.3366 87.9143 19.9102C87.3566 20.4839 86.665 20.9396 85.8429 21.2772C85.0191 21.6006 84.0719 21.7615 82.9997 21.7615ZM82.9997 18.7863C83.6896 18.7863 84.2631 18.6397 84.7189 18.3448C85.1746 18.0517 85.5195 17.6389 85.7553 17.1101C86.0056 16.5811 86.1307 15.9932 86.1307 15.3464C86.1307 14.6566 86.0056 14.0525 85.7553 13.5398C85.5053 13.0107 85.146 12.5927 84.676 12.2834C84.2202 11.9743 83.6627 11.8207 83.0015 11.8207C82.3402 11.8207 81.797 11.9743 81.3271 12.2834C80.8571 12.5927 80.496 13.0107 80.2476 13.5398C80.0117 14.0542 79.8956 14.6566 79.8956 15.3464C79.8956 15.9932 80.0135 16.5811 80.2476 17.1101C80.4817 17.6389 80.8356 18.0499 81.3056 18.3448C81.7756 18.6379 82.342 18.7863 83.0032 18.7863H82.9997Z" fill="black"/>
<path d="M97.3211 21.7615C96.2775 21.7615 95.366 21.5917 94.5887 21.254C93.8238 20.902 93.1858 20.4302 92.6712 19.8441C92.1565 19.2561 91.774 18.5951 91.5256 17.8605C91.2755 17.1119 91.1504 16.3399 91.1504 15.5465V15.1282C91.1504 14.3063 91.2826 13.5201 91.547 12.7695C91.8116 12.0046 92.2012 11.3292 92.7158 10.7412C93.2305 10.1534 93.8685 9.69064 94.6334 9.35285C95.4126 9.01506 96.3007 8.84528 97.2997 8.84528C98.388 8.84528 99.3495 9.05794 100.188 9.48505C101.026 9.89603 101.694 10.4768 102.193 11.2256C102.354 11.4685 102.493 11.7223 102.607 11.9867C103.013 12.9197 102.152 13.8042 101.135 13.8042C100.252 13.8042 99.5425 13.0483 98.9062 12.4371C98.5381 12.0548 98.002 11.8636 97.2979 11.8636C96.7099 11.8636 96.2185 12.01 95.8218 12.3049C95.4394 12.598 95.1535 13.0037 94.9623 13.5164C94.7711 14.031 94.6763 14.6405 94.6763 15.3464C94.6763 15.9932 94.7638 16.5811 94.9409 17.1101C95.1177 17.6248 95.3965 18.0285 95.7789 18.3216C96.1756 18.6004 96.6904 18.7397 97.3211 18.7397C97.7911 18.7397 98.1879 18.6594 98.5114 18.4967C98.8492 18.3198 99.1136 18.0857 99.3048 17.7908C99.6623 17.2547 100.168 16.733 100.813 16.733H101.267C102.277 16.733 103.12 17.6033 102.734 18.536C102.613 18.8309 102.461 19.1115 102.282 19.3795C101.767 20.1282 101.085 20.7161 100.232 21.1432C99.3799 21.5542 98.4095 21.7597 97.3229 21.7597L97.3211 21.7615Z" fill="black"/>
<path d="M106.917 21.3416C105.943 21.3416 105.153 20.5518 105.153 19.5778V7.01372C105.153 6.03988 105.943 5.25 106.917 5.25C107.891 5.25 108.681 6.03988 108.681 7.01372V14.2652C108.681 14.4118 108.563 14.5298 108.417 14.5298C108.27 14.5298 108.152 14.4118 108.154 14.2652C108.175 13.1609 108.329 12.2209 108.615 11.4436C108.924 10.6055 109.38 9.97478 109.982 9.54767C110.584 9.10621 111.342 8.88645 112.251 8.88645H112.405C113.742 8.88645 114.764 9.36354 115.468 10.3197C116.174 11.2597 116.526 12.6409 116.526 14.4637V19.5778C116.526 20.5518 115.736 21.3416 114.762 21.3416C113.788 21.3416 112.998 20.5518 112.998 19.5778V14.2437C112.998 13.5827 112.8 13.0537 112.404 12.6569C112.021 12.2459 111.515 12.0405 110.883 12.0405C110.25 12.0405 109.685 12.2532 109.274 12.6803C108.877 13.1054 108.679 13.672 108.679 14.3779V19.5796C108.679 20.5536 107.889 21.3433 106.915 21.3433L106.917 21.3416Z" fill="black"/>
<path d="M128.681 21.3416C128.143 21.3416 127.639 21.0754 127.339 20.6286L124.206 15.9915C124.083 15.8092 123.876 15.6984 123.656 15.6984C123.106 15.6984 122.793 15.0677 123.127 14.6297L126.787 9.83708C127.064 9.47448 127.495 9.26181 127.95 9.26181C129.166 9.26181 129.852 10.6573 129.108 11.6205L126.826 14.5762C126.66 14.7924 126.315 14.6691 126.322 14.3974C126.329 14.1259 126.68 14.0204 126.835 14.2437L130.011 18.7952C130.76 19.8692 129.991 21.3433 128.681 21.3433V21.3416ZM121.075 21.3416C120.101 21.3416 119.312 20.5518 119.312 19.5778V7.01372C119.312 6.03988 120.101 5.25 121.075 5.25C122.049 5.25 122.839 6.03988 122.839 7.01372V19.5778C122.839 20.5518 122.049 21.3416 121.075 21.3416Z" fill="black"/>
<path d="M141.65 21.3416C140.876 21.3416 140.251 20.7144 140.251 19.9424V18.0697C140.251 17.9054 140.117 17.7712 139.952 17.7712C139.788 17.7712 139.656 17.6373 139.656 17.4728V13.8918C139.656 13.2752 139.509 12.8125 139.214 12.5033C138.921 12.1942 138.449 12.0405 137.804 12.0405C137.481 12.0405 137.055 12.0476 136.526 12.062C135.997 12.0763 135.454 12.0996 134.895 12.1281C134.071 12.171 133.374 11.5188 133.374 10.6931V10.434C133.374 9.7586 133.89 9.19574 134.564 9.15285C135.02 9.12414 135.49 9.10093 135.974 9.08657C136.459 9.0724 136.914 9.06512 137.341 9.06512C138.576 9.06512 139.611 9.24217 140.449 9.59413C141.302 9.9461 141.948 10.4822 142.388 11.2024C142.829 11.9083 143.049 12.8196 143.049 13.9347V19.9406C143.049 20.7144 142.422 21.3398 141.65 21.3398V21.3416ZM136.392 21.6508C135.526 21.6508 134.761 21.4972 134.1 21.1879C133.453 20.8789 132.947 20.4392 132.579 19.8657C132.211 19.2776 132.028 18.579 132.028 17.7712C132.028 16.8903 132.257 16.1702 132.711 15.6109C133.167 15.0372 133.806 14.6191 134.629 14.3545C135.452 14.0758 136.4 13.9365 137.472 13.9365H139.069C139.611 13.9365 140.051 14.376 140.051 14.9176C140.051 15.459 139.611 15.8985 139.069 15.8985H137.449C136.832 15.8985 136.353 16.0522 136.015 16.3614C135.692 16.6544 135.531 17.06 135.531 17.5729C135.531 18.0573 135.692 18.4539 136.015 18.763C136.353 19.0561 136.83 19.2045 137.449 19.2045C137.845 19.2045 138.197 19.1383 138.507 19.0061C138.83 18.8596 139.094 18.6166 139.3 18.2788C139.373 18.159 139.434 18.0233 139.486 17.8714C139.607 17.5068 140.092 17.33 140.356 17.6087C140.442 17.6998 140.487 17.8232 140.472 17.9463C140.385 18.6987 140.186 19.3384 139.875 19.8674C139.552 20.4411 139.096 20.8806 138.508 21.1897C137.935 21.499 137.231 21.6526 136.392 21.6526V21.6508Z" fill="black"/>
</svg>
